<?xml version="1.0" encoding="UTF-8"?>
<svg version="1.1" xmlns="http://www.w3.org/2000/svg" width="116" height="127">
<path d="M0 0 C11.77315533 7.96181835 19.55314251 19.14071254 22.34765625 33.11328125 C24.47050595 48.89176989 19.90675047 62.30735541 10.97265625 75.23828125 C8.46023756 78.31647362 5.76183515 81.19215823 3.01171875 84.05859375 C0.94052976 86.06549506 0.94052976 86.06549506 -0.02734375 88.23828125 C-0.68734375 88.23828125 -1.34734375 88.23828125 -2.02734375 88.23828125 C-2.52234375 89.72328125 -2.52234375 89.72328125 -3.02734375 91.23828125 C-3.68734375 91.23828125 -4.34734375 91.23828125 -5.02734375 91.23828125 C-5.02734375 91.89828125 -5.02734375 92.55828125 -5.02734375 93.23828125 C-6.49609375 94.68359375 -6.49609375 94.68359375 -8.52734375 96.36328125 C-12.28133 99.54485116 -15.74667773 102.9070147 -19.16796875 106.44140625 C-21.01703934 108.22832321 -22.93938768 109.74160478 -25.02734375 111.23828125 C-27.92855463 109.9085596 -30.15478378 108.42880105 -32.52734375 106.30078125 C-33.22085938 105.67945312 -33.914375 105.058125 -34.62890625 104.41796875 C-35.42039063 103.69867188 -36.211875 102.979375 -37.02734375 102.23828125 C-37.96320312 101.39523438 -38.8990625 100.5521875 -39.86328125 99.68359375 C-42.4446607 97.34885894 -45.00347294 94.9911274 -47.54882812 92.6171875 C-48.91768877 91.34054864 -50.29257328 90.07037707 -51.66796875 88.80078125 C-63.59341185 77.40035766 -74.47585692 62.99924516 -75.36328125 45.94140625 C-75.63185768 32.66015425 -73.39425379 21.04354793 -65.02734375 10.23828125 C-64.36734375 10.23828125 -63.70734375 10.23828125 -63.02734375 10.23828125 C-62.96546875 9.64015625 -62.90359375 9.04203125 -62.83984375 8.42578125 C-61.69494774 5.3433689 -59.85235394 4.83642987 -57.02734375 3.23828125 C-56.28355469 2.75488281 -55.53976563 2.27148438 -54.7734375 1.7734375 C-37.43708781 -9.28545224 -18.00129107 -10.47559003 0 0 Z M-40.02734375 13.23828125 C-41.54328125 13.82609375 -41.54328125 13.82609375 -43.08984375 14.42578125 C-51.53149502 19.63445969 -56.03333641 26.42542285 -58.77734375 35.80078125 C-59.85334215 46.29176568 -57.55059197 55.73829114 -51.02734375 64.23828125 C-50.61226562 64.86863281 -50.1971875 65.49898437 -49.76953125 66.1484375 C-48.60465126 67.90273281 -47.32249287 69.57783367 -46.02734375 71.23828125 C-45.03734375 71.23828125 -44.04734375 71.23828125 -43.02734375 71.23828125 C-43.02734375 71.89828125 -43.02734375 72.55828125 -43.02734375 73.23828125 C-42.36734375 73.23828125 -41.70734375 73.23828125 -41.02734375 73.23828125 C-40.68620432 69.57103236 -40.60024895 67.81265011 -42.83984375 64.80078125 C-43.56171875 63.95515625 -44.28359375 63.10953125 -45.02734375 62.23828125 C-48.80524025 54.96233243 -50.06886474 47.53644051 -47.92578125 39.5625 C-44.59736407 30.95202947 -39.14719449 25.86187207 -31.09375 21.578125 C-24.74065258 18.80218562 -18.90502406 18.14908943 -12.02734375 18.23828125 C-8.72103033 32.46723723 -6.40360439 45.76849728 -14.08984375 59.078125 C-19.04904575 65.8453694 -27.13309077 68.65943065 -35.02734375 70.23828125 C-35.51955854 74.01876429 -35.71343743 77.47485562 -35.02734375 81.23828125 C-32.74353492 84.17317593 -30.12804178 86.21036937 -27.02734375 88.23828125 C-15.15539247 83.36332541 -2.42283167 67.66920551 3.03515625 56.61328125 C5.11253096 51.5116013 5.97265625 46.73481488 5.97265625 41.23828125 C5.97265625 40.56152344 5.97265625 39.88476562 5.97265625 39.1875 C5.4303585 30.73104441 1.19193856 24.01705494 -4.83984375 18.30078125 C-9.09688672 14.70354822 -12.6740957 12.71503933 -18.02734375 11.23828125 C-18.67574219 11.0578125 -19.32414062 10.87734375 -19.9921875 10.69140625 C-27.12190589 9.10398335 -33.38719666 10.53677654 -40.02734375 13.23828125 Z " fill="#025133" transform="translate(88.02734375,11.76171875)"/>
<path d="M0 0 C4.14635004 13.38308518 6.74787635 25.88263288 0 39 C-3.62797557 44.82240456 -8.66574789 48.45565335 -15 51 C-17.72941799 51.61106373 -20.19293714 51.84688748 -23 52 C-22.88719527 47.29296626 -22.76810564 43.98756439 -19.8125 40.1875 C-11.85714286 34 -11.85714286 34 -9 34 C-9 33.01 -9 32.02 -9 31 C-10.093125 31.474375 -11.18625 31.94875 -12.3125 32.4375 C-14.53476255 33.40187809 -16.69500485 34.23166828 -19 35 C-18.2528885 29.02310798 -15.29452054 23.94178081 -12 19 C-11.61500109 17.34450469 -11.27206865 15.6777567 -11 14 C-16.74175243 17.5463765 -19.07194518 23.16401445 -22 29 C-24 28 -24 28 -25 25 C-25.66 24.67 -26.32 24.34 -27 24 C-26.84402344 24.556875 -26.68804687 25.11375 -26.52734375 25.6875 C-24.3664132 34.15949262 -25.77316658 40.68648857 -28 49 C-32.72428502 47.15662226 -33.8937425 44.1426087 -35.953125 39.71875 C-38.61470177 32.80659542 -38.68912861 25.9265434 -36 19 C-31.03761322 9.35667524 -23.10276227 3.63301303 -13 0 C-8.28930742 -0.94213852 -4.69239792 -0.8777622 0 0 Z " fill="#F29BA0" transform="translate(76,30)"/>
<path d="M0 0 C1.32 0 2.64 0 4 0 C4 0.99 4 1.98 4 3 C2.02 3.99 0.04 4.98 -2 6 C-2 3 -2 3 0 0 Z " fill="#125338" transform="translate(63,61)"/>
<path d="" fill="#000000" transform="translate(0,0)"/>
<path d="" fill="#000000" transform="translate(0,0)"/>
</svg>
